<svg xmlns="http://www.w3.org/2000/svg" width="31" height="31" viewBox="0 0 31 31"><defs><style>.cls-1{fill:#868686;fill-rule:evenodd}</style></defs><path id="ic-instagram" class="cls-1" d="M1536.44 2491h-13.89a8.565 8.565 0 0 0-8.55 8.55v13.89a8.568 8.568 0 0 0 8.55 8.56h13.89a8.57 8.57 0 0 0 8.56-8.56v-13.89a8.568 8.568 0 0 0-8.56-8.55zm5.81 22.44a5.808 5.808 0 0 1-5.81 5.81h-13.89a5.806 5.806 0 0 1-5.8-5.81v-13.89a5.8 5.8 0 0 1 5.8-5.8h13.89a5.806 5.806 0 0 1 5.81 5.8v13.89zm-12.75-14.93a7.99 7.99 0 1 0 7.99 7.99 8.006 8.006 0 0 0-7.99-7.99zm0 13.23a5.24 5.24 0 1 1 5.24-5.24 5.245 5.245 0 0 1-5.24 5.24zm8.32-15.56a1.989 1.989 0 0 0-1.42.59 2.012 2.012 0 0 0-.59 1.43 2.014 2.014 0 0 0 2.01 2.01 2.029 2.029 0 0 0 1.43-.59 1.989 1.989 0 0 0 .59-1.42 2.014 2.014 0 0 0-2.02-2.02z" transform="translate(-1514 -2491)"/></svg>